<?xml version="1.0" encoding="UTF-8"?>
<svg version="1.1" xmlns="http://www.w3.org/2000/svg" width="131" height="32">
<path d="M0 0 C1.65 0 3.3 0 5 0 C6 1 6 1 6.09765625 3.50390625 C6.08605469 4.51324219 6.07445312 5.52257812 6.0625 6.5625 C6.05347656 7.57441406 6.04445313 8.58632812 6.03515625 9.62890625 C6.02355469 10.41136719 6.01195312 11.19382812 6 12 C8.31 12 10.62 12 13 12 C12.979375 11.030625 12.95875 10.06125 12.9375 9.0625 C13 6 13 6 14 5 C13.34 4.67 12.68 4.34 12 4 C12 6.31 12 8.62 12 11 C10.35 11 8.7 11 7 11 C7 7.37 7 3.74 7 0 C23.99709279 -0.86037028 23.99709279 -0.86037028 28.375 2.125 C32.64211816 6.79851037 34.61704926 10.72346298 34.3515625 17.046875 C33.36540116 22.5255491 29.32895064 25.92416665 25 29 C21.81175432 30.59412284 18.37103338 30.10174735 14.875 30.0625 C14.12089844 30.05798828 13.36679688 30.05347656 12.58984375 30.04882812 C10.72652873 30.03703499 8.86325445 30.01909942 7 30 C7 26.37 7 22.74 7 19 C8.65 19 10.3 19 12 19 C12 20.98 12 22.96 12 25 C13.91924787 24.77065591 15.8354406 24.51565657 17.75 24.25 C18.81734375 24.11078125 19.8846875 23.9715625 20.984375 23.828125 C24.45099037 22.8761529 25.78817299 21.79197835 28 19 C29.10879653 15.52577087 29.27568489 13.74090313 28 10.3125 C25.40704554 7.31439641 22.63733494 6.4608278 19 5 C19.01160156 6.28777344 19.02320312 7.57554688 19.03515625 8.90234375 C19.0445327 10.58072772 19.05363305 12.25911326 19.0625 13.9375 C19.07087891 14.78763672 19.07925781 15.63777344 19.08789062 16.51367188 C19.09272461 17.72700195 19.09272461 17.72700195 19.09765625 18.96484375 C19.10551147 20.08814087 19.10551147 20.08814087 19.11352539 21.23413086 C19 23 19 23 18 24 C16.33382885 24.04063832 14.66611905 24.042721 13 24 C13 22.02 13 20.04 13 18 C10.69 18 8.38 18 6 18 C6.01160156 18.78246094 6.02320313 19.56492187 6.03515625 20.37109375 C6.04417969 21.38300781 6.05320312 22.39492188 6.0625 23.4375 C6.07410156 24.44683594 6.08570313 25.45617187 6.09765625 26.49609375 C6 29 6 29 5 30 C3.35 30 1.7 30 0 30 C0 20.1 0 10.2 0 0 Z " fill="#8E8E8E" transform="translate(2,2)"/>
<path d="M0 0 C1.65 0 3.3 0 5 0 C6 1 6 1 6.09765625 3.50390625 C6.08605469 4.51324219 6.07445312 5.52257812 6.0625 6.5625 C6.05347656 7.57441406 6.04445313 8.58632812 6.03515625 9.62890625 C6.02355469 10.41136719 6.01195312 11.19382812 6 12 C8.31 12 10.62 12 13 12 C13 10.02 13 8.04 13 6 C14.32 6 15.64 6 17 6 C17 11.61 17 17.22 17 23 C16.01 23 15.02 23 14 23 C14 21.35 14 19.7 14 18 C11.36 18 8.72 18 6 18 C6.01160156 18.78246094 6.02320313 19.56492187 6.03515625 20.37109375 C6.04417969 21.38300781 6.05320312 22.39492188 6.0625 23.4375 C6.07410156 24.44683594 6.08570313 25.45617187 6.09765625 26.49609375 C6 29 6 29 5 30 C3.35 30 1.7 30 0 30 C0 20.1 0 10.2 0 0 Z " fill="#1F1F1F" transform="translate(2,2)"/>
<path d="M0 0 C0.66 0 1.32 0 2 0 C1.66277668 3.03500987 1.19548997 4.74658707 -0.6875 7.1875 C-5.35002196 10.8419091 -10.09558279 11.24294729 -15.875 11.125 C-17.02742188 11.10695313 -18.17984375 11.08890625 -19.3671875 11.0703125 C-20.23601563 11.04710937 -21.10484375 11.02390625 -22 11 C-22 7.7 -22 4.4 -22 1 C-20.35 1 -18.7 1 -17 1 C-17 2.98 -17 4.96 -17 7 C-8.69764403 6.47686837 -8.69764403 6.47686837 -1.875 2.375 C-1.25625 1.59125 -0.6375 0.8075 0 0 Z " fill="#262626" transform="translate(31,20)"/>
<path d="M0 0 C3.96 0 7.92 0 12 0 C12.72437834 3.62189172 13.11585593 6.23765264 13.0625 9.8125 C13.05347656 10.60269531 13.04445313 11.39289062 13.03515625 12.20703125 C13.02355469 12.79871094 13.01195313 13.39039063 13 14 C11.68 14 10.36 14 9 14 C9 11.03 9 8.06 9 5 C8.01 4.67 7.02 4.34 6 4 C6 7.3 6 10.6 6 14 C4.68 13.67 3.36 13.34 2 13 C2 10.03 2 7.06 2 4 C1.34 4 0.68 4 0 4 C0 2.68 0 1.36 0 0 Z " fill="#B8B8B8" transform="translate(94,7)"/>
<path d="M0 0 C0.99 0 1.98 0 3 0 C3 1.65 3 3.3 3 5 C3.99 5 4.98 5 6 5 C6 3.35 6 1.7 6 0 C7.32 0.33 8.64 0.66 10 1 C10 5.29 10 9.58 10 14 C8.68 14 7.36 14 6 14 C6 12.35 6 10.7 6 9 C5.01 9 4.02 9 3 9 C3 10.65 3 12.3 3 14 C1.68 13.67 0.36 13.34 -1 13 C-1.02686553 11.02090602 -1.04633375 9.04171029 -1.0625 7.0625 C-1.07410156 5.96035156 -1.08570313 4.85820312 -1.09765625 3.72265625 C-1 1 -1 1 0 0 Z " fill="#636363" transform="translate(41,7)"/>
<path d="M0 0 C2.31 0 4.62 0 7 0 C7 4.62 7 9.24 7 14 C4.36 14 1.72 14 -1 14 C-1.02685938 11.85423363 -1.04633088 9.70837355 -1.0625 7.5625 C-1.07410156 6.36753906 -1.08570312 5.17257812 -1.09765625 3.94140625 C-1 1 -1 1 0 0 Z " fill="#939393" transform="translate(67,7)"/>
<path d="M0 0 C6.34507042 0.59859155 6.34507042 0.59859155 8.9375 2.1875 C10.56034621 4.95588471 10.44922076 6.85545467 10 10 C8.375 12.375 8.375 12.375 6 14 C4.02 14 2.04 14 0 14 C0 9.38 0 4.76 0 0 Z M3 4 C3 6.31 3 8.62 3 11 C3.99 10.34 4.98 9.68 6 9 C5.67 7.35 5.34 5.7 5 4 C4.34 4 3.68 4 3 4 Z " fill="#808080" transform="translate(52,7)"/>
<path d="M0 0 C1.32 0 2.64 0 4 0 C4 4.62 4 9.24 4 14 C1.36 14 -1.28 14 -4 14 C-5.125 11.75 -5.125 11.75 -6 9 C-5.125 6.6875 -5.125 6.6875 -4 5 C-2.68 5 -1.36 5 0 5 C0 3.35 0 1.7 0 0 Z M-1 8 C-1 11 -1 11 -1 11 Z " fill="#939393" transform="translate(80,7)"/>
<path d="M0 0 C9.25 0 9.25 0 13 1 C13 3.64 13 6.28 13 9 C12.01 9 11.02 9 10 9 C10 7.02 10 5.04 10 3 C9.34 3 8.68 3 8 3 C8 4.98 8 6.96 8 9 C6.68 8.67 5.36 8.34 4 8 C4 6.68 4 5.36 4 4 C3.67 5.65 3.34 7.3 3 9 C2.01 9 1.02 9 0 9 C0 6.03 0 3.06 0 0 Z " fill="#8F8F8F" transform="translate(108,12)"/>
<path d="M0 0 C0.33 0 0.66 0 1 0 C1 9.24 1 18.48 1 28 C1.99 28 2.98 28 4 28 C4 24.04 4 20.08 4 16 C6.97 16 9.94 16 13 16 C13 16.66 13 17.32 13 18 C10.69 18 8.38 18 6 18 C6.01160156 18.78246094 6.02320313 19.56492187 6.03515625 20.37109375 C6.04417969 21.38300781 6.05320312 22.39492188 6.0625 23.4375 C6.07410156 24.44683594 6.08570313 25.45617187 6.09765625 26.49609375 C6 29 6 29 5 30 C3.35 30 1.7 30 0 30 C0 20.1 0 10.2 0 0 Z " fill="#C5C5C5" transform="translate(2,2)"/>
<path d="M0 0 C0.99 0 1.98 0 3 0 C3 1.98 3 3.96 3 6 C3.66 6 4.32 6 5 6 C5 4.02 5 2.04 5 0 C6.32 0 7.64 0 9 0 C9.125 3.375 9.125 3.375 9 7 C7 9 7 9 3.875 9.125 C2.451875 9.063125 2.451875 9.063125 1 9 C-0.4783226 6.04335481 -0.06032783 3.25770263 0 0 Z " fill="#A0A0A0" transform="translate(85,12)"/>
<path d="M0 0 C3.125 0.375 3.125 0.375 6 1 C6.04241723 3.33294775 6.04092937 5.66702567 6 8 C5 9 5 9 2.5625 9.1875 C0 9 0 9 -2 7 C-2.25 4.5 -2.25 4.5 -2 2 C-1.34 1.34 -0.68 0.68 0 0 Z " fill="#737373" transform="translate(124,12)"/>
<path d="M0 0 C2.64 0 5.28 0 8 0 C8 0.99 8 1.98 8 3 C7.01 3 6.02 3 5 3 C5 6.3 5 9.6 5 13 C4.01 13 3.02 13 2 13 C2 10.03 2 7.06 2 4 C1.34 4 0.68 4 0 4 C0 2.68 0 1.36 0 0 Z " fill="#707070" transform="translate(94,7)"/>
<path d="M0 0 C2.31 0 4.62 0 7 0 C6.67 2.64 6.34 5.28 6 8 C4.02 8 2.04 8 0 8 C0 5.36 0 2.72 0 0 Z " fill="#525252" transform="translate(67,7)"/>
<path d="M0 0 C1.65322266 0.01740234 1.65322266 0.01740234 3.33984375 0.03515625 C4.99693359 0.04869141 4.99693359 0.04869141 6.6875 0.0625 C7.54214844 0.07410156 8.39679687 0.08570313 9.27734375 0.09765625 C9.27734375 0.42765625 9.27734375 0.75765625 9.27734375 1.09765625 C6.30734375 1.09765625 3.33734375 1.09765625 0.27734375 1.09765625 C0.27734375 3.73765625 0.27734375 6.37765625 0.27734375 9.09765625 C-1.04265625 9.09765625 -2.36265625 9.09765625 -3.72265625 9.09765625 C-3.8203125 2.9453125 -3.8203125 2.9453125 -3.72265625 1.09765625 C-2.72265625 0.09765625 -2.72265625 0.09765625 0 0 Z " fill="#161616" transform="translate(12.72265625,2.90234375)"/>
<path d="M0 0 C1.32 0.33 2.64 0.66 4 1 C4 5.29 4 9.58 4 14 C2.68 14 1.36 14 0 14 C-0.08886184 10.80097361 0.08941469 8.07322544 1 5 C0.67 5 0.34 5 0 5 C0 3.35 0 1.7 0 0 Z " fill="#AEAEAE" transform="translate(47,7)"/>
<path d="M0 0 C0.66 0 1.32 0 2 0 C2 3.96 2 7.92 2 12 C0.35 12 -1.3 12 -3 12 C-2.34 11.67 -1.68 11.34 -1 11 C-1.33 9.35 -1.66 7.7 -2 6 C-1.34 6 -0.68 6 0 6 C0 4.02 0 2.04 0 0 Z " fill="#212121" transform="translate(81,7)"/>
<path d="M0 0 C0.99 0 1.98 0 3 0 C3 1.65 3 3.3 3 5 C3.99 5.33 4.98 5.66 6 6 C4.02 6 2.04 6 0 6 C0 8.31 0 10.62 0 13 C-0.33 13 -0.66 13 -1 13 C-1.02686553 11.02090602 -1.04633375 9.04171029 -1.0625 7.0625 C-1.07410156 5.96035156 -1.08570313 4.85820312 -1.09765625 3.72265625 C-1 1 -1 1 0 0 Z " fill="#939393" transform="translate(41,7)"/>
<path d="M0 0 C2.0625 0.4375 2.0625 0.4375 4 1 C4 3.64 4 6.28 4 9 C3.01 9 2.02 9 1 9 C0.63877119 7.68942607 0.28619689 6.37646376 -0.0625 5.0625 C-0.35833984 3.96615234 -0.35833984 3.96615234 -0.66015625 2.84765625 C-0.77230469 2.23792969 -0.88445312 1.62820313 -1 1 C-0.67 0.67 -0.34 0.34 0 0 Z " fill="#636363" transform="translate(117,12)"/>
<path d="M0 0 C0.99 0 1.98 0 3 0 C3 1.98 3 3.96 3 6 C3.99 6.33 4.98 6.66 6 7 C6 7.33 6 7.66 6 8 C4.33388095 8.042721 2.66617115 8.04063832 1 8 C0 7 0 7 -0.0625 3.4375 C-0.041875 2.303125 -0.02125 1.16875 0 0 Z " fill="#4B4B4B" transform="translate(85,12)"/>
<path d="M0 0 C0.66 0 1.32 0 2 0 C2.103125 1.11375 2.20625 2.2275 2.3125 3.375 C2.539375 4.57125 2.76625 5.7675 3 7 C3.99 7.66 4.98 8.32 6 9 C5.67 9.33 5.34 9.66 5 10 C3.35 10 1.7 10 0 10 C0 6.7 0 3.4 0 0 Z " fill="#181818" transform="translate(52,10)"/>
<path d="M0 0 C1.65 0 3.3 0 5 0 C5.33 1.32 5.66 2.64 6 4 C5.01 4 4.02 4 3 4 C3 5.98 3 7.96 3 10 C2.67 10 2.34 10 2 10 C2 7.69 2 5.38 2 3 C1.34 3 0.68 3 0 3 C0 2.01 0 1.02 0 0 Z " fill="#6A6A6A" transform="translate(52,7)"/>
<path d="M0 0 C0.66 0.33 1.32 0.66 2 1 C2 3.97 2 6.94 2 10 C1.01 10 0.02 10 -1 10 C-0.67 6.7 -0.34 3.4 0 0 Z " fill="#313131" transform="translate(97,10)"/>
<path d="M0 0 C0.33 0 0.66 0 1 0 C1 3.63 1 7.26 1 11 C0.34 10.01 -0.32 9.02 -1 8 C-3.05003955 6.80767387 -3.05003955 6.80767387 -5 6 C-3.68 6 -2.36 6 -1 6 C-0.67 4.02 -0.34 2.04 0 0 Z " fill="#0D0D0D" transform="translate(48,8)"/>
<path d="M0 0 C1.98 0.99 1.98 0.99 4 2 C3.34 2 2.68 2 2 2 C2 3.98 2 5.96 2 8 C1.34 8 0.68 8 0 8 C0 5.36 0 2.72 0 0 Z " fill="#1E1E1E" transform="translate(108,12)"/>
<path d="M0 0 C0.33 0 0.66 0 1 0 C1.25 2.75 1.25 2.75 1 6 C-1 8.375 -1 8.375 -3 10 C-3.33 8.35 -3.66 6.7 -4 5 C-2.68 5 -1.36 5 0 5 C0 3.35 0 1.7 0 0 Z " fill="#AFAFAF" transform="translate(80,7)"/>
</svg>
